<?xml version="1.0" ?><svg xmlns="http://www.w3.org/2000/svg" xmlns:xlink="http://www.w3.org/1999/xlink" width="1000" height="1000"><path transform="scale(1.95312 1.95312)" d="M262.041 27.1886L239.962 27.8459C219.711 30.3949 199.053 36.6263 181.078 46.3593C137.284 70.0731 105.861 115.197 99.387 164.687C98.8301 168.944 98.9386 173.59 98.0001 177.75C95.9932 186.646 82.8145 187.041 82.209 177.976C81.7929 171.748 83.3242 164.987 84.2836 158.862C96.4068 81.4538 156.748 23.4102 234.657 12.2572C239.829 11.5168 245.085 11.2046 250.293 10.8193L250.819 10.7678C295.966 9.25656 341.075 27.2339 374.119 57.6882C405.25 86.3793 428.258 132.484 429.917 175.452C430.398 187.92 416.319 187.759 414.171 176.203C412.675 168.157 412.301 159.969 410.562 151.93C395.685 83.1448 332.549 29.1852 262.041 27.1886Z"/><path transform="scale(1.95312 1.95312)" d="M265.233 500.528C254.332 501.248 243.845 500.777 233.079 499.319L222.539 497.643C206.594 494.656 164.185 480.198 162.376 459.963C161.325 448.208 174.264 443.882 182.273 438.637C198.768 427.836 205.669 413.408 203.675 393.362C199.72 390.417 194.886 388.197 190.589 385.738C139.484 356.488 108.536 311.635 96.6407 254.261C91.0284 227.19 91.3505 194.949 113.645 175.031C116.552 172.434 119.733 171.364 119.732 167.75L119.785 161.383C120.904 139.261 134.221 117.64 149.037 101.764C174.1 74.9075 210.386 58.835 247.019 57.5577L259.12 57.4947C309.647 57.4767 356.003 82.3233 381.165 126.86C386.85 136.924 391.283 147.997 392.21 159.619L392.568 169.975C392.896 170.41 393.183 170.807 393.644 171.114C416.106 186.04 420.704 216.969 417.059 241.857C408.082 303.154 374.778 357.701 318.806 387.2L311.355 390.949C310.04 391.572 308.9 391.751 307.682 392.658C306.351 414.559 312.759 428.231 332.393 440.411C339.249 444.663 349.39 448.249 349.769 457.856C350.157 467.671 341.564 474.19 334.379 479.334C314.564 493.521 289.313 499.618 265.233 500.528ZM252.734 73.3762C204.357 74.616 155.556 100.838 138.707 148C137.583 151.148 136.408 154.587 136.126 157.933C168.831 142.25 194.098 135.08 231.139 131.891L260.709 130.737L275.25 131.032C309.16 133.344 347.013 141.514 376.314 158.662C375.246 152.62 373.063 147.072 370.532 141.501C352.318 101.415 311.467 76.5806 268.181 73.5361C263.078 73.1771 257.853 73.3561 252.734 73.3762ZM247.811 146.584C209.762 147.009 149.767 160.434 123.926 187.033C101.576 210.039 109.427 248.063 118.836 275.144C130.84 309.689 151.283 339.465 180.939 360.862C203.083 376.838 229.674 390.094 257.561 389.518L263.58 389.206C276.706 387.757 288.462 383.747 300.421 378.367C356.503 353.134 393.118 301.283 401.139 240.437C402.104 233.117 402.857 225.624 402.095 218.237L401.807 216.36C401.273 213.734 400.952 211.117 400.22 208.525C387.381 163.074 308.101 148.558 269.072 146.675L247.811 146.584ZM220.239 399.554C219.911 429.201 204.809 445.55 178.679 458.955C194.087 478.613 232.5 484.362 255.348 484.362L268.363 484.276C276.553 483.813 285.225 482.321 293.189 480.41C307.311 476.83 322.766 470.743 332.845 459.831C313.373 446.622 296.825 435.737 291.971 410.703L290.733 399.777C267.097 407.357 243.613 407.555 220.239 399.554Z"/><path transform="scale(1.95312 1.95312)" d="M51.6691 297.491L48.4788 295.595C42.1312 291.669 35.7341 286.813 31.0779 280.927C16.7163 262.774 12.3161 227.099 24.7088 207.575C32.2074 195.761 47.3501 186.293 61.1317 183.298C75.3927 181.83 75.3024 198.818 77.8336 209.749L85.3688 245.363C87.5927 257.613 89.0004 269.281 88.9906 281.703C88.9834 290.701 88.7379 299.723 78.62 302.787C69.2438 305.626 59.8484 301.888 51.6691 297.491ZM58.7871 200.375C49.1642 205.042 39.5635 211.384 35.9371 222.011C31.5139 234.973 33.7984 252.909 39.9212 265.208C43.4203 272.237 49.312 276.502 55.7105 280.732C59.0642 282.79 68.6823 288.673 72.6729 288.394L72.9792 288.311C74.5377 263.147 67.9467 237.966 62.167 213.688L58.7871 200.375Z"/><path transform="scale(1.95312 1.95312)" d="M462.625 296.111C453.594 301.506 438.184 308.156 428.771 299.937C421.126 293.262 422.913 274.325 423.823 265.202L426.378 245.762L437.296 196.918C438.821 190.416 440.386 184.691 447.786 183.308C460.33 182.533 481.397 197.923 487.578 208.028C500.696 229.476 494.263 268.35 477.098 285.45C472.923 289.609 467.656 293.077 462.625 296.111ZM452.792 200.066L447.036 225.094C442.883 243.112 437.302 269.456 439.459 288.06C445.736 286.625 451.956 283.327 457.413 279.965C469.732 272.159 473.368 266.405 476.69 251.623C482.714 224.815 476.818 211.822 452.792 200.066Z"/><path transform="scale(1.95312 1.95312)" d="M330.378 209.489L306.225 208.67C303.257 208.649 299.958 209.148 297.342 207.469C289.195 202.238 292.979 193.662 301.287 192.316L324.875 193.056C327.422 193.192 330.404 192.976 332.84 193.784L334.265 194.396C339.892 197.391 339.983 208.795 330.378 209.489Z"/><path transform="scale(1.95312 1.95312)" d="M189.924 208.768L188.208 209.21C182.459 209.381 173.66 209.496 173.731 201.329C173.813 191.803 186.228 193.175 192.461 193.029L203.691 192.637C206.575 192.597 209.939 192.222 212.775 192.594C221.086 193.685 221.87 206.716 212.894 208.106C210.57 208.465 192.358 209.418 189.924 208.768Z"/><path transform="scale(1.95312 1.95312)" d="M310.407 247.792L304.134 247.791C301.207 247.781 298.328 248.091 295.968 245.989C289.49 240.22 294.119 232.042 303.242 231.977L310.641 231.96L316.998 231.908C320.155 231.887 322.948 231.503 325.461 233.832C328.766 236.894 329.297 241.858 325.988 245.115C322.252 248.792 315.273 247.793 310.407 247.792Z"/><path transform="scale(1.95312 1.95312)" d="M211.504 247.694L198.7 247.786C192.811 247.786 185.389 248.633 183.847 240.965C182.989 236.702 187.17 232.86 190.973 232.048C195.813 231.729 207.619 231.474 212.362 232.077C220.746 233.143 220.961 245.905 211.504 247.694Z"/><path transform="scale(1.95312 1.95312)" d="M273.871 303.279C246.465 319.843 218.967 291.896 238.997 287.299C242.956 287.123 245.113 289.512 248.589 290.797C261.507 295.574 266.32 286.449 273.09 287.337C277.104 287.864 280.446 292.027 279.768 296.078C279.257 299.127 276.27 301.595 273.871 303.279Z"/><path transform="scale(1.95312 1.95312)" d="M219.169 335.496L216.881 334.277C208.479 329.084 211.117 317.875 220.797 319.56C225.029 320.297 229.142 322.314 233.346 323.376C249.794 327.534 267.654 327.307 283.777 321.832C286.695 320.841 289.451 319.583 292.513 319.065C297.866 319.503 301.976 324.666 299.819 330.007C297.478 335.806 287.586 337.506 282.235 338.789C262.986 343.408 237.838 343.51 219.169 335.496Z"/></svg>